<svg width="37" height="31" viewBox="0 0 37 31" fill="none" xmlns="http://www.w3.org/2000/svg">
<rect x="13.28" y="19.572" width="1" height="2" fill="black"/>
<path d="M36.28 10.572H35.28V11.572H34.28V12.572H33.28V10.572H34.28V9.57202H35.28V5.57202H36.28V10.572Z" fill="#834924"/>
<path d="M33.28 10.572H32.28V8.57202H33.28V10.572Z" fill="#834924"/>
<path d="M32.28 8.57202H31.28V7.57202H32.28V8.57202Z" fill="#834924"/>
<path d="M31.28 7.57202H30.28V6.57202H31.28V7.57202Z" fill="#834924"/>
<path d="M33.28 2.57202H34.28V3.57202H35.28V5.57202H34.28V4.57202H33.28V3.57202H32.28V4.57202H31.28V5.57202H30.28V6.57202H29.28V4.57202H30.28V3.57202H31.28V2.57202H32.28V1.57202H33.28V2.57202Z" fill="#834924"/>
<path d="M33.28 5.57202H34.28V8.57202H33.28V7.57202H32.28V6.57202H31.28V5.57202H32.28V4.57202H33.28V5.57202Z" fill="#5E3419"/>
<path d="M35.28 9.57202H34.28V10.572H33.28V8.57202H34.28V5.57202H35.28V9.57202Z" fill="#361608"/>
<path d="M33.28 8.57202H32.28V7.57202H33.28V8.57202Z" fill="#361608"/>
<path d="M32.28 7.57202H31.28V6.57202H32.28V7.57202Z" fill="#361608"/>
<path d="M31.28 6.57202H30.28V5.57202H31.28V6.57202Z" fill="#361608"/>
<path d="M32.28 5.57202H31.28V4.57202H32.28V5.57202Z" fill="#361608"/>
<path d="M34.28 5.57202H33.28V4.57202H34.28V5.57202Z" fill="#361608"/>
<path d="M33.28 4.57202H32.28V3.57202H33.28V4.57202Z" fill="#361608"/>
<rect x="9.28003" y="12.572" width="24" height="1" fill="#E1CE2E"/>
<path d="M29.28 4.57202H6.28003V3.57202H7.28003V2.57202H30.28V3.57202H29.28V4.57202Z" fill="#834924"/>
<path d="M10.28 12.572H9.28003V11.572H10.28V12.572Z" fill="#E0CE2E"/>
<path d="M9.28003 11.572H8.28003V9.57202H9.28003V11.572Z" fill="#E0CE2E"/>
<path d="M8.28003 9.57202H7.28003V8.57202H8.28003V9.57202Z" fill="#E0CE2E"/>
<path d="M7.28003 8.57202H6.28003V6.57202H7.28003V8.57202Z" fill="#E0CE2E"/>
<path d="M6.28003 6.57202H5.28003V5.57202H6.28003V6.57202Z" fill="#E0CE2E"/>
<path d="M28.28 5.57202V6.57202H29.28V8.57202H30.28V9.57202H31.28V11.572H32.28V12.572H10.28V11.572H9.28003V9.57202H8.28003V8.57202H7.28003V6.57202H6.28003V5.57202H28.28Z" fill="#2A180C"/>
<path d="M30.28 7.57202H31.28V8.57202H32.28V10.572H33.28V12.572H32.28V11.572H31.28V9.57202H30.28V8.57202H29.28V6.57202H30.28V7.57202Z" fill="#FAFA6D"/>
<path d="M6.28003 4.57202H29.28V6.57202H28.28V5.57202H4.28003V4.57202H5.28003V3.57202H6.28003V4.57202Z" fill="#FAFA6D"/>
<path d="M30.28 4.57202H29.28V3.57202H30.28V4.57202Z" fill="#FAFA6D"/>
<path d="M7.28003 3.57202H6.28003V2.57202H7.28003V3.57202Z" fill="#FAFA6D"/>
<path d="M32.28 2.57202H31.28V3.57202H30.28V2.57202H7.28003V1.57202H32.28V2.57202Z" fill="#FAFA6D"/>
<path d="M28.28 17.572H6.28003V16.572H7.28003V15.572H8.28003V14.572H9.28003V13.572H32.28V14.572H31.28V15.572H30.28V16.572H28.28V17.572Z" fill="#2A180C"/>
<path d="M28.28 29.572H30.28V30.572H27.28V18.572H28.28V29.572Z" fill="#834924"/>
<path d="M31.28 29.572H30.28V28.572H31.28V29.572Z" fill="#834924"/>
<path d="M32.28 28.572H31.28V27.572H32.28V28.572Z" fill="#834924"/>
<path d="M33.28 27.572H32.28V26.572H33.28V27.572Z" fill="#834924"/>
<path d="M34.28 26.572H33.28V16.572H31.28V15.572H32.28V14.572H33.28V12.572H34.28V26.572Z" fill="#834924"/>
<path d="M30.28 18.572H28.28V17.572H30.28V18.572Z" fill="#834924"/>
<path d="M31.28 17.572H30.28V16.572H31.28V17.572Z" fill="#834924"/>
<path d="M30.28 18.572V19.572H29.28V28.572H30.28V29.572H28.28V18.572H30.28Z" fill="#361608"/>
<path d="M33.28 26.572H32.28V27.572H31.28V28.572H30.28V27.572H31.28V25.572H32.28V26.572V17.572H31.28V16.572H33.28V26.572Z" fill="#361608"/>
<path d="M31.28 18.572H30.28V17.572H31.28V18.572Z" fill="#361608"/>
<path d="M32.28 25.572H31.28V27.572H30.28V28.572H29.28V19.572H30.28V18.572H31.28V17.572H32.28V25.572Z" fill="#5E3419"/>
<path fill-rule="evenodd" clip-rule="evenodd" d="M26.28 30.572H4.28003V18.572H26.28V30.572ZM13.28 21.572H14.28V19.572H13.28V21.572ZM16.28 22.572H12.28V19.572H5.28003V28.572H6.28003V29.572H24.28V28.572H25.28V19.572H16.28V22.572Z" fill="#834924"/>
<path d="M12.28 22.572H11.28V20.572H6.28003V27.572H7.28003V28.572H23.28V27.572H24.28V20.572H17.28V22.572H16.28V19.572H25.28V28.572H24.28V29.572H6.28003V28.572H5.28003V19.572H12.28V22.572Z" fill="#361608"/>
<path d="M16.28 23.572H12.28V22.572H16.28V23.572Z" fill="#361608"/>
<path d="M11.28 22.572H12.28V23.572H16.28V22.572H17.28V20.572H24.28V27.572H23.28V28.572H7.28003V27.572H6.28003V20.572H11.28V22.572Z" fill="#5E3419"/>
<path d="M28.28 18.572H27.28V30.572H26.28V18.572H4.28003V30.572H3.28003V17.572H4.28003V16.572H6.28003V17.572H28.28V18.572Z" fill="#F8FB6D"/>
<path d="M30.28 17.572H28.28V16.572H30.28V17.572Z" fill="#F8FB6D"/>
<path d="M7.28003 16.572H6.28003V15.572H7.28003V16.572Z" fill="#F8FB6D"/>
<path d="M31.28 16.572H30.28V15.572H31.28V16.572Z" fill="#F8FB6D"/>
<path d="M8.28003 15.572H7.28003V14.572H8.28003V15.572Z" fill="#F8FB6D"/>
<path d="M32.28 15.572H31.28V14.572H32.28V15.572Z" fill="#F8FB6D"/>
<path d="M9.28003 14.572H8.28003V13.572H9.28003V14.572Z" fill="#F8FB6D"/>
<path d="M33.28 14.572H32.28V13.572H33.28V14.572Z" fill="#F8FB6D"/>
<g opacity="0.75" filter="url(#filter0_f_61_1275)">
<path d="M21.2725 6V7.0918H21.5195V6H26.7441V7.0918H27.8232V8.17188H28.9277V17.7158H14.9688V16.6357H14.4756V17.7158H7.0918V16.6357H6V7.0918H7.0918V6H21.2725Z" fill="#F8FB6D"/>
</g>
<g filter="url(#filter1_f_61_1275)">
<path d="M21.2725 6V7.0918H21.5195V6H26.7441V7.0918H27.8232V8.17188H28.9277V17.7158H14.9688V16.6357H14.4756V17.7158H7.0918V16.6357H6V7.0918H7.0918V6H21.2725Z" fill="#F8FB6D" fill-opacity="0.5"/>
</g>
<path d="M21.3477 15.716V10.172H22.4397V9.092H23.5197V8H24.7437V9.092H25.8237V10.172H26.9277V15.716H25.7037V13.544H22.5597V15.716H21.3477ZM22.5597 12.332H25.7037V10.292H24.6237V9.212H23.6397V10.292H22.5597V12.332Z" fill="white"/>
<path d="M16.9689 15.716V9.212H16.0089V10.292H14.7969V9.092H15.8889V8H19.2729V9.092H20.3769V10.292H19.1529V9.212H18.1929V15.716H16.9689Z" fill="white"/>
<path d="M9.092 15.716V14.636H8V13.424H9.212V14.516H12.356V12.452H9.092V11.372H8V9.092H9.092V8H12.476V9.092H13.58V10.292H12.356V9.212H9.212V11.264H12.476V12.332H13.58V14.636H12.476V15.716H9.092Z" fill="white"/>
<defs>
<filter id="filter0_f_61_1275" x="2" y="2" width="30.9277" height="19.7158" filterUnits="userSpaceOnUse" color-interpolation-filters="sRGB">
<feFlood flood-opacity="0" result="BackgroundImageFix"/>
<feBlend mode="normal" in="SourceGraphic" in2="BackgroundImageFix" result="shape"/>
<feGaussianBlur stdDeviation="2" result="effect1_foregroundBlur_61_1275"/>
</filter>
<filter id="filter1_f_61_1275" x="0" y="0" width="34.9277" height="23.7158" filterUnits="userSpaceOnUse" color-interpolation-filters="sRGB">
<feFlood flood-opacity="0" result="BackgroundImageFix"/>
<feBlend mode="normal" in="SourceGraphic" in2="BackgroundImageFix" result="shape"/>
<feGaussianBlur stdDeviation="3" result="effect1_foregroundBlur_61_1275"/>
</filter>
</defs>
</svg>
