<svg width="24" height="24" viewBox="0 0 24 24" fill="#ffffff" xmlns="http://www.w3.org/2000/svg">
<path d="M19.1925 8.76925H15.731C15.5887 8.76925 15.4698 8.7215 15.3743 8.626C15.2788 8.5305 15.231 8.41158 15.231 8.26925C15.231 8.12692 15.2788 8.008 15.3743 7.9125C15.4698 7.817 15.5887 7.76925 15.731 7.76925H18.0925C17.5324 6.61925 16.7023 5.7035 15.6023 5.022C14.5023 4.34067 13.3016 4 12.0003 4C10.5733 4 9.27587 4.39133 8.10804 5.174C6.94004 5.95667 6.09704 6.998 5.57904 8.298C5.49954 8.46467 5.39704 8.56658 5.27154 8.60375C5.14587 8.64092 5.02404 8.63325 4.90604 8.58075C4.78804 8.52825 4.69929 8.43658 4.63979 8.30575C4.58012 8.17492 4.57845 8.0525 4.63479 7.9385C5.22979 6.4475 6.19554 5.25167 7.53204 4.351C8.86854 3.45033 10.358 3 12.0003 3C13.4823 3 14.8486 3.38142 16.0993 4.14425C17.35 4.90708 18.317 5.93717 19.0003 7.2345V4.5C19.0003 4.35767 19.048 4.23875 19.1435 4.14325C19.239 4.04775 19.358 4 19.5003 4C19.6426 4 19.7615 4.04775 19.857 4.14325C19.9525 4.23875 20.0003 4.35767 20.0003 4.5V7.9615C20.0003 8.1935 19.9237 8.38617 19.7705 8.5395C19.6174 8.69267 19.4247 8.76925 19.1925 8.76925Z" />
<path fill-rule="evenodd" clip-rule="evenodd" d="M11.3916 8.21387C12.079 8.27303 12.6733 8.53906 13.168 9.01367C13.7329 9.55579 14.0176 10.2194 14.0176 10.9951V16.7373C14.0175 17.1866 13.8499 17.5768 13.5205 17.8984C13.1901 18.2209 12.7838 18.3827 12.3125 18.3828C11.8417 18.3828 11.4307 18.2243 11.0898 17.9082C10.7477 17.5906 10.5743 17.1967 10.5742 16.7373V11.3154C10.5742 11.177 10.6251 11.0536 10.7266 10.958C10.8272 10.8633 10.9529 10.8185 11.0918 10.8184L11.1934 10.8262C11.2923 10.8434 11.3816 10.8878 11.457 10.959C11.5578 11.0545 11.6094 11.1769 11.6094 11.3154V16.7373C11.6095 16.9171 11.6731 17.0682 11.8047 17.1963C11.9361 17.3237 12.0977 17.3887 12.2959 17.3887L12.4375 17.376C12.5723 17.352 12.6877 17.2927 12.7861 17.1973C12.9184 17.069 12.9823 16.9176 12.9824 16.7373V10.9824L12.9727 10.7988C12.9312 10.3801 12.7523 10.0211 12.4346 9.7168C12.0717 9.36948 11.6276 9.19434 11.0928 9.19434C10.5584 9.19437 10.1133 9.37165 9.74805 9.72363C9.38253 10.0759 9.20117 10.4972 9.20117 10.9951V17.0576C9.19861 17.8727 9.49712 18.5654 10.1006 19.1416C10.7041 19.7176 11.4375 20.0068 12.3086 20.0068L12.624 19.9932C13.3449 19.93 13.9643 19.6456 14.4873 19.1416C15.0107 18.6369 15.3047 18.0438 15.374 17.3584L15.3906 17.0576V11.3154C15.3906 11.1769 15.4417 11.0536 15.543 10.958C15.6436 10.8635 15.7691 10.8184 15.9082 10.8184L16.0098 10.8262C16.1086 10.8434 16.1979 10.8878 16.2734 10.959C16.3742 11.0545 16.4258 11.1769 16.4258 11.3154V17.0576C16.4257 18.1506 16.0251 19.0855 15.2275 19.8516C14.4795 20.57 13.5723 20.9514 12.5156 20.9961L12.3027 21C11.1546 20.9999 10.1745 20.6173 9.37207 19.8516C8.56979 19.0856 8.16614 18.1509 8.16602 17.0576V10.9951C8.16602 10.2194 8.45082 9.55578 9.01562 9.01367C9.581 8.4714 10.2761 8.20021 11.0918 8.2002L11.3916 8.21387ZM14.9424 19.9053L14.9414 19.9062C14.8865 19.9532 14.8309 19.9985 14.7744 20.042C14.8431 19.9893 14.9113 19.935 14.9775 19.877C14.9663 19.8868 14.9537 19.8956 14.9424 19.9053ZM10.2178 19.4434C10.2804 19.4936 10.3442 19.5418 10.4092 19.5869C10.3414 19.5399 10.2752 19.4892 10.21 19.4365L10.2178 19.4434ZM9.99609 19.25C10.0654 19.3162 10.1372 19.3778 10.21 19.4365L9.99609 19.25ZM9.71387 18.8662C9.74539 18.9062 9.77854 18.9454 9.8125 18.9844C9.74457 18.9061 9.6813 18.8262 9.62305 18.7441L9.71387 18.8662ZM12.9121 18.1221C12.8205 18.1587 12.7248 18.1867 12.625 18.2051C12.6752 18.196 12.7244 18.1846 12.7725 18.1709C12.8682 18.1432 12.9594 18.1056 13.0469 18.0596L12.9121 18.1221ZM13.4141 17.791C13.4431 17.7627 13.4705 17.7325 13.4971 17.7031C13.4991 17.7009 13.5009 17.6985 13.5029 17.6963C13.4748 17.7282 13.4455 17.7604 13.4141 17.791ZM12.209 17.5352C12.206 17.5349 12.2031 17.5335 12.2002 17.5332C12.2311 17.5365 12.2626 17.5391 12.2949 17.5391C12.2595 17.5391 12.2251 17.5362 12.1914 17.5322C12.1973 17.5329 12.2031 17.5346 12.209 17.5352ZM13.625 17.5391C13.6268 17.5364 13.6291 17.534 13.6309 17.5312L13.625 17.5391ZM11.4287 11.1729C11.4245 11.1637 11.4181 11.1553 11.4131 11.1465C11.4188 11.1563 11.4251 11.1655 11.4297 11.1758C11.4214 11.1569 11.4125 11.1383 11.4004 11.1211C11.4118 11.1373 11.4207 11.1551 11.4287 11.1729ZM16.2451 11.1729C16.2409 11.1637 16.2345 11.1553 16.2295 11.1465C16.2352 11.1563 16.2415 11.1655 16.2461 11.1758C16.2378 11.1569 16.2289 11.1383 16.2168 11.1211C16.2282 11.1373 16.2371 11.1551 16.2451 11.1729ZM9.33008 10C9.30925 10.0332 9.28899 10.0664 9.27051 10.1006C9.27487 10.0925 9.27872 10.0842 9.2832 10.0762C9.29156 10.0613 9.30174 10.0469 9.31055 10.0322C9.31697 10.0214 9.32342 10.0107 9.33008 10ZM9.37305 9.93066C9.38277 9.91656 9.39413 9.90357 9.4043 9.88965C9.408 9.88454 9.41128 9.87911 9.41504 9.87402C9.40093 9.89296 9.38633 9.91139 9.37305 9.93066ZM9.52246 9.74023C9.50703 9.75765 9.49319 9.77622 9.47852 9.79395C9.48335 9.78806 9.48824 9.78222 9.49316 9.77637C9.4972 9.7716 9.50079 9.76646 9.50488 9.76172C9.50662 9.7597 9.50802 9.7569 9.50977 9.75488C9.51398 9.75 9.51818 9.74509 9.52246 9.74023ZM13.2305 9.29688L13.2529 9.31934L13.2246 9.28906C13.2268 9.29149 13.2283 9.29444 13.2305 9.29688ZM13.2246 9.28906C13.1742 9.23222 13.1211 9.1764 13.0645 9.12207L13.2246 9.28906Z" />
</svg>
